<mxfile host="65bd71144e">
    <diagram id="z138ZR3Te5bHD0f28iVv" name="Page-1">
        <mxGraphModel dx="430" dy="351" grid="1" gridSize="10" guides="1" tooltips="1" connect="1" arrows="1" fold="1" page="1" pageScale="1" pageWidth="850" pageHeight="1100" math="0" shadow="0">
            <root>
                <mxCell id="0"/>
                <mxCell id="1" parent="0"/>
                <mxCell id="2" value="" style="shape=image;verticalLabelPosition=bottom;labelBackgroundColor=default;verticalAlign=top;aspect=fixed;imageAspect=0;image=data:image/png,iVBORw0KGgoAAAANSUhEUgAAAbAAAAAwCAYAAABwiS9GAAAgAElEQVR4nOy9WYxlyZke9sVytrvmVpW1dXX1QrKbw+Y6mtGMZtVYMx4Lsgwb9oNhjCFBevOTAQMDPxowBBi2ZcCAAcMPfvEY0IMN2JYsGbYlQdYsFMnhsEmR3eytutbcM+961ogw/j/i3HszK7Mqq9lkd9sTZHVV3jzn3HNORPzr93+/+F/u/ttOQOKzNqwz9F/84e+pz9y9rw4n6CnEp+eGnnOM7VuQzkFAwDkHd+Z0+lyIUx+gPcgtPnJ44sSf0fg/dzqf+Dv8SYYVDWgnKCkgjUBHxlhPK0hbQkiBUteopUY+jTG3GlYrdCqBvrOobIOJa1BryfMknYSgBckr0kKK5Zx2OyniqKIZh7EWSkVwJsZsKtEghnANFCyckDA8o/6P/7+DcHyTfC59A91bXdf4j/+zDOD189kZfqla/Nl3uviHf3AEKSV+4gXsHJqmPvWR1hFOb56PedC2kxoq0s91/3RHv/HLP4e//fNrPNfG735o4fCP3i3wP/z9b8Odc9/DtQH+y9/7KhJ61vBrCYsGGn/rv/rHsEI+5/MK6Lw5/Om9oJ/BENj8zN67a0XFZ1d/4aXNLm8+edHCo03ilpvDH3bmWHHqcP/RZfbTeV953nlPHLeiMHeWJ9B99uIUXZ2gsQaTYg4jl4euPscnO9zioYSTgCR14yDsHIOhwa9/fgOJLVmINCrG3A3xre/v4OGoQC8WWJcJIgBTYTFuDEhFSShIZ4PJ4cJbEqDLuybHq7du4nPbCqk5gDUOUiY4nCT45z94iBkssjhGT8fQVuCkzDG3DWmpxWRamlBL30MXtHzfcRxjK/6A1w8+Q0a0f/sWmbwOqOcT/hcNISS6We+UWVea+U/j9pdDgOfe1tVzP0NRGSheLy6sGUDBoWwszBlF3I6qqnmWJSoo5+eb/mtobUgJW59/3tOG/mhP/ukZ7Vau5WdPC/C2/bTIxI84uqn28uccnUQC38BvElqjbNuLpQvmrf6lU0bGvws/tO/Fhs/a88Wq9ybDVcTK5255reVw59yb9f8WdvEh3Q95BUXR+PPDdy/O/tTM1fLhhFWsZMgOduQL6Qid2CBuKn7XRlk4l8A1M8h8BmkiyMEQjdKoGgdUDrHxHpELnhC9G6UEnGhgmwKqniFzE6whQ9cY/l4nHOaigXQNnNMQiBCRGrQOiubKAlIBhr2ycK/0OX2HEzCmgRQa1qlgGHy2okA+4vDx3LMUCtudF5Dp7sJIkkJiWp1gL3+IJ+Man/zQpkATDPCwamAcENvi4ndmat7XhlWdH2wyOYvmIygveAX2GZegYfx/4yk+e8M6GVTU6hDsatFmtCRYnViIXL8/g/eAlXCiWCofNtbD3y6c056/UGzhJCF9CFn6T/hO3Nn1wPcYNCNfyLQ3svi7Pd44EszhO1buCec5cp+WIbxCoffd1BbHRxJRnZDDgyY+QKFG2L7Ww7DfQ13OcZgfYy4UrOpikHWhnEDhLApTsx6x7FEDnSzC9Y0BUjtlBXawW2BEClCT19fgYJ77eRIkSBwiW8NahUTH7Jk0wiFvijAjS2Fv6AQZ8bv+7I6PbzXQ7hgmm4hlwqkR+lmrCLGIsJ8/+tQosN/6lTfwm69vwlmHjWRVecHvQCHxl25HuP1vbqFuciiVQHdvQGfbbBR1hAmGVhty9YatEhZ/52/9OjQs+Wb4z/+n7+D4eHKpe9L6nNCPOSeX8UkOdk+fERsVf67EPpFROxfsKe8JcdiJLH8Tch0hJHWeEqDPjHQrakeEHIxYeFyti71QMIsLCL9pjGVrFeKiFSCXClNIeJ/QnrqH1X+Q0lp4fWeu1OZy/DOe/7afvAsTPvvp5GojE6ERGaq4RqQbFGWN/VEOXZUw1sFqQEQVPrcZo3uri0ejBPd/MMK40RgkEdbSDrRx2G1yOFNBKOnDObbGeqeLb7x0Ex3MsLfzAIfjY1gkbFlIKXBcJ5iojBWnRoEYEqUcIBICEV1HKNR1gdoJtLNspUBlDIRxiKT0OTbyysQ5bnwYi9CtaINVT//8Mud+XNf/OIaSCtY27JkY27DRV9sKeTP/FCiv5YreyjRe61vUTnqDaRFZoVAzzbdGJwJe7k/gyiMo1UPU24LsuhDx8KHu1Xm2IXpye6AghEYMg/F4dum705CrEwa/zD5lmmCh5cU5UuXPxyc6WCjxDShIjv0pzIsCh4eHSCnHsbEOOLMU+CveFDtGUmM2z3F4cIRet4Ot9SFbeEJg4UlZEv7CtVkZv6kJmJAXGB2PkCUZNjYG7eXDEW2MnYRoiaOjE8RphrX1blCScpGMP73Wzl9iPnzpAuBAMFjh/MXqf89/E9BI1IBScEKd/aqPZWRmDI05GtQQrmDFYGOFRkQeMOHW2LKNrYQ2JeBKQMbQJkNaK6hIwgjjBUswEikEKI1BXNfQdck5C2EEgxWEJBNAAiqFrBWS4pDjhY2wyLM1ugvY8F9WdHQ9K3wukRWWRYocuqkgoaFlFDx1d26OUQgBJXSQS3RcCP1S+FnpkM6k35lz5ozueWk42POOEYJDme3KsYvQsuDQHtr15D7eyaNrb6XXeX1GOuLcIL39xlY4LPcwro7COv6khfFK/trW/o6E8J43vOFBIUCYinOeztao6hi1yaAQo+M0YsrRLizPRcJgcX2fNqh4fzVwSGKNovI5VKkUTF3D2fPfv/5PPvjx4gdrLWIh8e9du4WXsg7KC076WQ369o4QmFuH/373IT6czzhWL1a8sd/BX/xE7/H/70OE8JAhIUCLGRKNBSazgi3wNs3rhP+XDN4V+22c/0jQNA7zXPNGthyMqnx0XYTjWIFR7p9s1IY3jZESjVMoSrpujZrkLwlY/kbpjR4KRQqJ2lhM8xKJEegP+yzUBAcdW4X4pMpaBZEQypIEsY4iH950FqU1p8JibZ4ukRG0E8gSIJMVpnWFkW0TeAIft3X4l768CWWmgLRwyTYOxg0+eLAPJSLESYJUAdo2iEWFbF5h1hh0ux1EVYZuITCazZCjQUmeYrAa+kkHnThC2hgcPtqBljnKmjzqBMYozOY1SlMjhcXvvrSJJorwVjXHu/sGqZlAiprDhMYIn/MU4DBlbRUr9Ndu9HBnoDHNHb72hS+yoHq0/y4e7P6Y57AdxhpcXb+Fl298ha9xePII7z96E9YabA5v4OWbX+G5PBo9wvsP32Tl1npKpKw2Btfx0s0vQ0uN49EjvPfwB+zdLI6xBhvD63j5xpcZVXk4foQPHrzJXhBd/6UbX4ZUEY7GD/hzv14+Hgs6Vim2O7eghEJjGzYDKRxOz3Bc7n0s3/HRh1cyOtL4d3/nFpQtkUQZvrjdQ8N5yxB2Fz4UWJdHqGePeW9OCo37uwrTfA1ZGuGFWOP6UIV314b52+iKCGhFg2q+B5vv897+/b+2hjIZoKpr/Ghf43//p3cXebazQ39/duQ/IhPJeAWWX72BTCmOoT/XEGCr71lqj60yKc+7n1ODRESiFErUeGs2xfvjE4bisokYxu98MjP85yMMRcn8vMLeeMwhOgXDCL44TlDXBo92D72KEA3iWGFrYxN5UWF0fAIrEjjEqOoGWicoygaPHu8iTSU21gaomhKHR1NYF7HVn0SUk8lQVDn2DsawlI8RMSoD7B6eMBx4Y7AOaxocHOzx/ZBw5HCm1KzIdvfIYzDeE4gSCAI4XEIm8fFxhCxO2MMs8vm5iN+MlIYzuNoV2EwV7s8txicFhI1/KpGN29djpBUp7hQ55VBEhDff3odVGl1I9FMJXRskswK1tazAEpUh6aZwzRzzfB9FbGDEANoIxBQOTB1SaCS1QzmtUREQhHKaJGwpTAiFidWIE4lXrkqILMGjfYH5vSNEmKCRQCM7MDJhhKRyDWJbcvaDEIxXshgvX+3hqFBY619nxX403uV3LNxqRMgi0gmG/assNfJiFkKOFjF93rsKJTWKYhZkycoLtuHc3lVEMkFZzdjCcIQ0kO31HbRKMOhvI1IJ8mq++F76fNjbhtIximrin58NkaXn8JMM6xqUtoAmI8/5wJqy4NDhJz+CgrIWvzy4j8SM4bKbiLKrsGSouibcoWLFS0AfW+1DUByg7GCS9zCepaitRtOoRbj/STDV8nNnCpjqgA3LG8pBNjuIUGF9axt/n4BDQpz7yjW04FiOs6QYBLSQiKSvDHv+EoRL2idtJPAZByt2tT0iJ6Xwg1Icnxc00x9DfYQ81/ZejqXN8NkZNG+ZfP675vCFA0onn2trSqk5pzHLax92YWySYMu1Ias79x4aIbakyAAMUNdTTOcjOFkGkIeH4TfOoCkaCJVCyD6aRmKWj2FcBUM1Sl0JISJGvU1mE/6+iFEHFmVeIjYWbk2jrmrM8tIrMK450hyyoTvJy4ZDXt6KtBdadue9IFc37F2aprnwsJq9RMNw4rImaLtEbDWMokDcxx8Qms9LlBXY2zFRhFlhWHEYlSInhGLjkDFIQ0CDhIqDqQWsrKDSCmuqgVU1v+PIJYiswBRz5E6hEhEKK1moUM7DSoecIiIixkxIJFriQQ1EyBEbiRe7EsopzEuLmSOvPGKINCkwTQYMGZ4U1SlLzOcRplUMQwKbQlLOckhRrni1MggJQzVtoWJIefOXp6zhcy17Le15K3AhDklZU/taJetLDqRcemkQXrhaW3EIlJQKlxOw5CFUXclKiwQ5PdeqdBMr3t5HGbWp8OH47VOrj56hdpdTYLFK0I0GkE7hpDqAcRevyaeOp0QFOKQr6Ln9s1OtIR1/+j2Q70NRMcphGQ+qIk+SohxSc15LCst/2ONaZrtJ3XgI/ULStnPo2FiiOc8iAaX1hXtO/Ot/8y+7Kqnwz3/1HUyHcyir8VqnhzVCEZ33YGfnbOWQsjH4lfVN/Praho9pn3NoR2q8nU/xD/Z3kbtnl/AqFmwOP5pPMLH+If76t27jlf0+P3z8/VsLGP3zCAc65/WkRCTtueeRZ3HSaHxYxT9VJSYdPtY6sEQ4vJ5SQv35bERaTLu1wt06fj4hq95BbRyKagmXsAtjqcWie8M1Uoprf2gxVnXFAnERDef/WJ/xkhpJnLDwqOqCgReOz5foJJpDPLOSztFLcUWbREmkScShobysQhhRLEC7tg3jhcAnGWv/9/0E7hkK3xdaWygCjNB1pEAj5bnQb1bGzmEtBjZimtwuKhujFA575eWQVc8z/vINh8ZoHJ/MUaKDucywOx2zwiHho6VE4mpsdRQiZzEtgf1CoHINXr8T4au3t5GWOZwVqJXGuC7xz368h0nRYBgnWI86iJzwhoayyCFwXPq9TgYCGQZpfYwv3OjhC7evYWpifOedHTw4zNEkQwbdRM0MW5nFS1sponKCWDpWfieVxt/+OynPV6+7gUF365QwJQNlVowwmuzye+2kQ6z1r/EcFsUEx5Md9payZIC1wVWIVStfCOTFFCftMekAa/2rQfi2x0jk5RQn7P0ZpEkf64NtfqZ5McFJ+N4s7WGdvcAVwS0c/tf/o8J/81/fDdnUn22u6kp2C9c7L7Dh997oh5jUJx/pOpYVtl3cv9KKgVH83InCf/jrHbimRreb4epWH3Gi+fftVqJ/jUY5Do4mfI1JmeHd3T5G8xiD1OLrnwdef9Ggqi1k1IdKr3DoUZoSTb7nDRjy48oj2HrMcz4vNQ4nMZwRqKMY/903CxyPPDyfFCSru1Brpr/8vZuYd0p88y++z/vRGIcfjk+WUyWWLncwrpejnTfl97KrStzuZNBiayW5f3p0lMTYNPjTkwPMyCyS4lRI8NS1+QJ+UZJGR+QxzV+5v4FffHcTlbb4o480bf7yQ2U443KuApMWtXg+b+TTMAjxpZ1DJC5v7UvvfC+8lOcZo9z44kTydtriqTN1WCIABCi0WM/n/gjp49+uzUEtjpdsLZNHR8aLZznwG4YiOJO8CYhHv+iWqWEuOkKRlz4XJxWHoNGyS1j6PhO+y59lFhD5ixFwi98KgVq3zCLi9LOuqutw7Yat/oailYiER5c937icZ+hsisYlqIRD4RRmTQ0nG1boDd1FBVTGYRrFHDp0kYCrapimYrRgJ4qQmQLSWtTao9+i4gSuIBYPgocoxI5yV96QqwWtsRoVIRzpnYgYHWL4oP2UAB2qBWocZO1zljLOIFwFKQp0lEOqHCoC4FDGREjsHd/lmrBeZw3XNu+wMlvMqIzwYO+H2D26y5N/88rncHXzNoM6Hu+/g4OTe+zJ3LzyKrY3/oL3FINQonMf77+Ld07u87Nev/IKrmx8g3NOLhQuCqWwc/geDu7fQ90UuL71OVxdvw2tYjw+eBfvPLiHhs7deglX1r8OSd5/K9Uk0O8QCcTd55zXj2dQjo/+UHb2PHDKc4/gif2Nv/4ivpHc5f1zfz/D44MUZdPBVl2inzyGqmrUVgQ2FbDvezJO8PC4wzV9syrB45MeRvME86zEdLKLZnqAugHD6XW2EWroalT5Q9hqFiIl/r2SOsgrjcfHGXITI4sK/Ee/Aax1/Ev/D/6eg2mWz6uLtEaZNN5iazeFWhFk2ngF09bvmJWN1Ro8pFi0//YoEoiVFzbnKbBIgMOB0JpDAiw5I/OkYqRRqScFiwOKqMEsJQocC0yj55oqHbyDrrJQWuCi+mdy51Oqbancguqp+YS1Gc1KKk/XLbWDXXknkEiLfk8snvNpg5WCdSgKP1dEBdMN3oi5ZDhRtDQ67GUpjoN7SHQ7d35uvcwQsFHD4YKoiSCsQKUCWnBRDW15TTDcw4KVcUXKiMKFAShnXcAZCrusNkaANYrU57hkhaYWmE8NtBToJLEPRweiIxeUnxVuRQ2eP1rUFVmO9G+aAuWWFWcLxKRr7XuBojZ4zEZiTgvZH3vJ+DqFuigcAyokpmsKfSELyJwUlC1QNAUKJRmMYVXDXsdaL8PNTg+2sjicW0xo41Mkh/Y0eamTGgcnM2gzX4Bx6LzXrvYwNylGJsHxrEZuHM+zU541xjYNh9V0THm+HB0yDgywczRDYg/wQt+gk3YwcTHuHzYwVnFoeDIxqFQf07JEJSyX6wgZs3FhnEJJoA/bMoFYLpKuLb3zlEMVhrIijeE0OEPz+XOFxkXsEcoA7WajRVk0/B5jeNtGo2wcixsX1iWJNQq9OpGwFcfHGMPF1wQK8p8TAMHnWano3YVQFy2955UHZORlusd7oRMD1wdUSuDwaFJjZ1Keew6FCimHd3Y3F2aGu5Mf85PkK4wd5Nl+fquziAyKoBSO8gb3Ts4rMnan/pLzMSI1Q0TVFJaQrJrnwLia95uWSy+GbdZgaDCgg9YpG6CS55zSBko5xFHN52hNXp3mzJUlEJakcHfjjT4hg9Hi5UTtCNyiYa1E1BRIm6nfC3Jw6l1czMShLKSV+Oofv4qrOwNUyuD6v5Jj8PkKtmxjyIDMHPb+nxQn34shC4mTb4zwX3z1/Sdyqu2gnMVeVXHhJGKL7qiDr3/nDjrTGFb7Nx6XCvO0xnd+4QOMN2YeYLKa3D0DxLzsIKH+m3cqdDWgpQ21ZRdHsilocNuW/OKmtcAfPoiQN5eSQj+VkUiHz6UV4gu8RlJGaz1ge1vyongWaIB0T1k4PH5s2evZ0A0GNO8COKgVPqieHU4kJCEBNHxtlFrmImh+Rc2eAB8TPC32ghxlypIglMtTyVxOtHPBIxlVGRrbhXWUz6pZKZJwt84rOLsSTxdBQdDvHadaEpC8zouCN3Wa6CCiG/Y2xELnPZuHkaNxwntxfKeUr6FaJuHzd1wOQKAnttB9iIPyfybkUjwcCc9UlCKElCVpAzuDtTmE7nOxuLgg57s/o7ycwNHcIZcOpaK8Q4K4nuDVYRdvvHQdVWXxh3/2LnYnNZxK0ZBMJ/h8Y3GwfwjVjLnAlB4kiSU+98I1JL11vPtojIeHeyh1F6KxcLVHKnMVgzDoKOCFzT76iNEtGhwdHsDJCV54YQuvZB0cVRq739rFjHNdMU6mij3qo8JiYgokkcUf7VzhtfLtnRj45gkbAWl/gv5gyuvw8Nji4cMv83eurUm8sPsBr9vjkcGDB19khbc+VPgXO/S5Q55nmJwMfb6FNFS0zQYEdnr4B9+bggrjkk6O/toJC8uTkcWDh18kfY7hUOJf7NxloTviz19HYySGQ4UXdu5CKsq1phgdD/hdffhW/ozdcXpkqofbvdd4PreHY7y8dYxO7PD2fondSXnuMrzVfRWdqLdkjgk76cejN1Gb00qPzn9xLcXXbvT52doifK0EdsYV7p8UTxq+hCswzUKa1obc6Ju8HcVIc5pQcS5R4XiWoaojri9cBiAEjqcdjGYprNMoav/FmhlgBHZHGd5+tIG6EdBJB9HYeDYW20BXHc6JsqwKhh+lbgjJyMXcZMRQLi3dhMjW+et6WY5cSV4bZWW8AnNtyEesoGy0JQMQX3h7G1/4/nXkaY3Xf/MY17bnqOdqsemTocWPD4a4980u1qYZ/rfB9/DtF9/zSXJ7fq0MaWsmbkwMskrjjTdfwPpRF40yLFC6sxTHwzne+tIjjK9OlkmiUN3qLkWU9+SgJTCILRfb2Uvyx2pWdo4NBPUJ16DR1zNuT/i83dkqB36m50yotdexARcTwed55CXBHIKzbWCQAtVuzCcCie6i36ek2AhwaVBMNHEKcZMhr4HHOZAkAldkweE/wwAPP4hjjTYN5VMOp0A/qrCVUQ1KRj4xC+STWcEKkwsoyRgh+1wDg17MyKeTiYLWloWPrTXGJOiDEkhjhW5G81mHerGnvzOmuzKWrcdOpJFJg17ivUXL/G8Oe+McBXkVpGSFLxhoU9LPMxm0uZUrsTnU6CRd7E0ynBSG1/x5plYRdzjs38Teo/GWcArdzNGrCvSaCXJHdFETKGPY421kCuE0C3zP5ZfCWW9Zm+BJyiCEKOBCoT4CYQjKe/Ga0yGHaHy4mvSEizBXHZSU90PCYT5RN0xhxfVCqoNad0BI+rIhZHECKQvcHQ1YIR0exDjY9YbQ2kaOze193u+Tkw0c7r7E76Y3Ocb9+hF7ApPJGvZ3bsMZhd74GPfqxxDSYDoZYv9RB41R6A8Frt8cQKoak1GKnYcNK6recI4r14+hVY3paB37uy/AGo3u+AT368dQqsGMrv/4BRgT8ecPqseQusZsPMDeow57GTh8vtAdR6Uonxg408hjpD/iKeF+XwcnOSKCYATZC1bVKmq8jZO133ehMWstfvXrV/AS7mGqt/D5awOka7egpYI+IgTxmO8xrxXuH6Tey3XeE/fBF4G9UQcfHvQCKw9QN4pTMJWV+NGDIT7Y6fI9EOALasYyKonmeHEjQxrJdul7Y5SUpZXeaHMNg7bi7jbiNS9H/tN/Zw/jYso1lr//B4dchM+LtqYwXtosuXoIWktWZcuUIHwgZGYtI7HaN07Q3IpgoAEVr7RD0wmuvLnorRkubkXSoOI/NTMJtApMNxpV2qBIGj7GF9+QdA11BM+pSFpjIRaO47ekXC9bIkDgF/pqour6pBGJbVrQBfe90wkhqzYKQPmHWJxlSbr4es6HF7rd0wucrLcs5wjWM68hJMekYBCjQYWyKUNyN4azsU/0hwnz3lOCkhK4ZIWR4HUZe8b++TRPLh1DqpSswXk5ReQk6rTnUWOSwg8GtTEMwXes0i2HDUlBkqVY1Q55JdFzNXpdiYKT9STgNYzzcPaEFKKooF30zGwT+1KuQVfFSIXFWuSw0Wk5aDNMqgg7hzUcadCfAB3rWFmAWRn6vR42OhrlHBhXOUwsGdV1VnQdEVjFekWjQqyW4P6DThdN1WD3/n22I1++uYWbt2McVBLfe1yiMVTfdICckhPOMPw/1gpmVuPxdAarSoxQs3+MYo7tXoyttQ7X6R0WwJzeiSqxe1jjuAJSFUP0hqjNAPKkQndeoOR7cxw6K2yDeXnM804gffIEXci7EhCBgDs68pEWAvtEysOQIqWhpK/Xo19TTRetOSqA1sp7I8TbSGEsKnrVSiOKJFvudC4VKQvOiWnEWjBiTmvFVE2EqtNKgcHNtPqUp3AilhEStnRdwR6MhNZe4RMiTkcKisJkl+BfTSOF7V7EyO5+1EE/HnvlLy12Rl1ESuBoevF1dmb3kOh0EUJuA6y1XXIHUoSB5odynfRddGxtBNLYYDMrkWhv2PTiDkoqdCe0b4Dr07G/fWeMa5q8nTGSYQIVb3jPR824+4AIOM+iiXyEJKSTWoOeclaziqjBIjb2eT59oRdmZYRxiFwyohMNG8tZ4rDZ03Cr3Bwr0Uyftvahfhn1IJIuK7f+9D461YeIzRzObUDfSitUqsGv/dErGKcNV81jocEdPnhlD2+9vMM6ZHClj6t1HBahH7rWeOdzO/jmX7kHp8nSU/iVf/jGpQJ8lMPqzRIkRYRGt6SfAmVSQTcCv/AnL2P6w+scymR9KHz0eoO8NXkezvHJQWCG19ICfWEhlECmLulZCK+8dnYsK+KxVag+IlL14x60ANJE4CrV4KygYNuFEAgjnjnoOjoSuHL19AYiBWanAj+a4ZmKnmjxiL7oYNZwLc36epeNmt1RjURnGPYtQ51p8Zna4XBaQKYK211qHyFwMO4gTUr0M3Cx7JjC+VxrIpHIAreHEqXNsJvLwG5BlEkKm+sbrFgsF4GS7tJc73UyGhFPOJTqQJLXwEKwwKDn8zvONYzam4+YkILttacbRD70aYXP0dTBkmFPx1acNywYo63ZMoV82rtvf/GMnBtiFLnGtDJIbY3b6x2cWIMR4eV9snlxbFFX3sMJ1hUBM4a6QSoUQ+H3ixqxrHD9aoyk30E0qvDDhxM42cOkSTCa+pDOUERIEfGczKYlClcg14KppbSZIesAG90Y0lDdD5knmtGVh+Mj/rkTp+gLNkGQo2SPsGpqJh6geckZku4pv4SqOOxMBez7j6+wMVZVWchHOxR5hv3HV32RbB2HnCpQFCkOdq/w502TLBZ8WaQ4pJJlhtQAACAASURBVM8lkcLGPhcpHKoyxsHOJgtdQ8cT4k461EWCw91Nfm8NxVPb4/n67eeJJ+ul6+cpDijUScAYPr7FsT57vLHdxZeudRip68tFTtg72R13cf9oCOeI7/BiAtxZM+Y/TxuvX+nii9c6y0IC4XN73bjGy1cm6CQNkqiPV9dfwbykTgsF3h//y4X8PCozXE97cDJl4I2rJ5yjIqBFu2rJg+K81mKNelZDwewlgpW+r+Y3XErigqxuU9R0T4qMEdpL5LFHivNr1UoorPWdHKd3TFDXFs5MYavGl/pQjk2vQagMcSSgr2cle1Q//6cvIrdiEafXNR1o8Af//h9j5wuP4eYav7X+eSiTelhzeJCo0rh75wg/6D9Gs57j5//RG/ilf/yat8IvCvUFLc7CVrigvJbHGs6/Cbzx5s1l2MQt2Q7WenNAX16bRAFSoOTlAjpiCVTjkAM5ixc6kz/DsXoL593OR7H9nTvfabh0lLY2nEupahKtNeIohakNqrKERuQFqzWwtLA5Ua+QELEneVFS4IQguY1Gj4qVieGiykOQpEaa1kgSCVtFGE0bFnSC6qxiiSSllVrwccy9GEXI52ChRV4CVM6Es84qDjklkfM8iKKhMiTMpzFicYkcH9f3+whEbho0dYPaUHG0hnQxewWNa1Y29kXDsqe0TFjjghlzHP2vKo1pXWC9p3FtOICazjAq87CST0/g0nDxiGHZ5L6UQPYhohgdTFGUBaS2aMoaia2I+wC1TjgPTBZ5JXzCnsREEysudVAReTFzJKJkZF5TTaErBVFRxVbM4VvybGxiYSKNhpjoWVArtthrzhMqZqX3LBM6AKJI6ZJySzCZ9L1nLURb4YCqSlCWyfJ9BElYNSmqcRJQoSGyIr1SmUyWhSN+/5IS0v76LeggKEg6vh5HnlejBcASMKSJUI2H4VgXEKeO53o6GSzmjBXqJdtIxBLoRkCtEGoPGyav1UyaTMo25tY0T12D5yC2VlcORzmgWb7RHJA8pzXKUPjYIIsbpNpxWNB7vMs19Mtf2sDNzS0kvVss6OryEPX8EXugpvCuEHmq5GXtjzNUjQxUav4OKBNd1IFQW1hUpsRxeYjKlr6/XEsODYGO7mMt3eAHoDD/4+MUSsaLFhQiKMp+WmJrOPe5Mdugmj5EGZCWIuojGbzC6/bv/g3KdDkPLKTwXSOXrS0lF19a1HENk3irMyXUkY6YraONWW7oGBFNUNrAxQZNFFBQlOeST8aI6V6VkUjLiAwmFlWJDFFCSsJyaMdvykK6J4R2q/SeZzwv6IOM7NYDazfVJ4Wnl/x+fOI8Ee6U5XfZUOGzxtnz3XP0l9wZ1YiTGFeHkbeabM3sKeuDiBP+hycVsiRGt9+BJQy2qr1CI9ZtJbA2SFE3DifjHFEUYWs9W3AJSlWgVjlUlGFjEDEPn3SaSWClGLMgJF+AYfPWcF6HtkocS3S6KtTCOQ5x8koTfoNQmLs/JIWin+l9UYEtIcViUpKuDtBhhdIRB4BmtBrh1hpXXVgWHzCVHJ5iAepsgHWcV1RpvfAkVhOZcfCmaBrY2iKmkOsFlIo2CGdiwjmoa99za1RDjLwVq/fASsOy5Zz5BoSRRD9KEDuJKfXwoiSBjpjCKWpqXNENXtzeID4Pz1c58/mNeUmF2jPOn/U6XU6GkGInBVtK4OGBRGIFMhOh3xsgVSSwDKZFHqilAnkCe2wyoB+XuQG6N7PY44tKv1BOK04BxGQgCjbnkgGLc4wzn9+TLtBcXWB5SOZvXCGhXuLWOHxoxeUKmcelxuNx5o2gYCySs3I8B07KHTavx9X+6e8WatEIlkB7a5k6FSaY1Qbjol5ER7KkxkZ3zjmpdi8TuCWNydNLuTvA4TRGY1yIQixX0N/8aoP+1hYrBmHmqA7uwxQHTDDs6j4EBoxArRqFg0nGIUGuZ5aBBxE+ZNj+oWJwagOTNxPPMSk8XQCF96ngZii2OKRMxATHs5ZKwrOc2HDfpIA3hgUrROLVbKoRGpnzXs6S1xD1tlnpr80eLlGIbd+jdsIoJ0ab4svffREn9zbY6vr+L1Z4cOtDMroXg0JQ+fcz/OI7r6HMGtx+7woavur5CU5tNE6GU3zrL+zBaB9a4q2lLbJc47W3byCbxoz42YoaBiy0r7tdorG0K6V3H98QIde1t2s8MCe8k0+y1VgqLT6flojCVFNI1F4Wkf0zGCOr0HMW61EBE3r9EEItSyXm5Ok0DoaMHkPhkhEkVRZRTRFX7jsG1FCOajytoRUVkya8dlwgb/U98xqkUczKQzJbQsWdiIkOllk2qN6I8Ai85nJGMg3SLitQrlJzasEmwQg6VSHRVEjZf4LM9+wggMJ6krHRNipKhqlX3L/IIyMpPMb/077546l+ZWHQN1AOZDOh0KbC/nSM5iksMG0+gET2ZGrQ5AXmhn5KGBp+0YktmovrdISnhmsPLiCBBaw6YtJVZyuGaWuOMhhWAoZqiyj3Q8anVuzBEQdixaCaBkZSbZjlLgSElswo78qeleUyDsazWd82gBLslIHy+8cjhTg34mRAAAD99xr2ohZ+pAWqdYniilpw7rUvJZoYpLvNqccnRVT3gNl2dDlCAGr9MrPo7DyFRMEBdVcg345Ct4TlufHUINtt+D5nlcHTg3vAvRMLZTd8rse5RR3hg+kDHORPch7S72927yBRQyS6wJ2tE3TT2oOzhAdx0B39k/eOsT+rWBZs9XJ8/nrB77lVapQ3PJom+GDPe47jPGFwxFmFTuQAHnBnIRgVpjm2zsTLYrnWaK9qadh4JOXlRMtJu2TXcK3BGLD7InSIaO+ZI28BO8zHSokWBy4CoTQZFfQ9AiuMH+yha9bOtMbYng8lExfC6G2YuC9/7xak8XQy//Pmt3A/fQhXRssd2qnwS9//Cn7lT172NSLSAzGemJgQAoxLieO1HN/5tXdQpBWYOI0LI2r0D3t48d4mspOM6ziuxhV66owCc8/nTWHFo3iap9IahhzKtad7UH2S2sIjDz0Axa4gBj8unuXVcGk75FK+PHNsDwQD2bhoVilPsUPWv1FIJbDRT9nyGx1NGPU17GfeE5GOlRAxqMdSYTiIQR3UWbDS+VTHU8WYTD2VDUHX2bPKBHsZhxONnJL9rkYXDr1uzNbq+iDmeDxxq1EI63huvNJyllGP3Szh+7OuhoqapzZS5GQ7sQyKCJ7zo+RNw0s2eHROY0Hx+pSOIP56LiSyOSTpnnjvoq0Bc47JgiWzDsQc1qso+a30UxcxvRfKLehQN8bFrvaMr9cKOJorKbl+qiFgFnnEob2JUYwMwExJPJ4WjCic1o6JnDgywsQCkq9RWt/zjZgWXCBTpvsnyiYKZ+VVzrkvUvS0aCUn/z3DPJkpyb7xaMh20LuJNOZXT4dKWedVDtn+acXDDEVUaH1NBFqbp6zYIFh1KZEcNMw9eCGcb0tifu3079l2qICE7sEApb7EJnSUV0wD32GrwCQrkycODb/XokcBN2aK6cUzDBJvHBDysUUhqmBVk/KJtUE/xSkFRghSYrQgY8ZxSPF8mTkvK+w9OkJDHCtEqTWn2qseq5xJ7sN79N39pMLP3TpiuUDe2IPDPvanqS/FMTnmzcQHh23NEQaxCHUvVRHl3k6KfV5jNP/deMhckBRcvrU1w1bf944jQ5SMGiqMpvrAg3GKWe6R7ypvoNIjDqUnYrxUYMxb58ST25mYHYy/mTmhBfsFw98Xb6NXoo4q/pmUV1JpxNWTvY9KbTBNqYJfoFAOZa+E6ZRBgQmgV6AoIxSEFGQtK7iOpy2IXlVa6jlbK1GIk1Pf6vxJdFzQGDwwQ01qBRcpyuDxfNKjfX5aLGnqk6BxvLz3n2RQ7Vh5poaSrOTZ7HJMHhtqBvIPC9ll8SbZ51Eh9ElkzAKFrTCqDGRXIcsIJVV5yK3zFreQNeLUBUNDMWGoJIZ5Yj4vqfFixqGEHne/o9BkhBkBKqh7UFUiEhVEx0uXXsZpZV5DleliXjTMvqDZSzOwacKFwaDWI2rKIZKLnlOE/mPH8ykiRp053zKi7QcmEdqntJ7XKaKixZC8eS325xOugzJP600FD1EelzmmK7RXNsQ0nhbyJMFIbU/WBwO2ZidVzrmvZbfqtuNyYEYxFqNq7hvhBI47Ze2ivmeUV8w8Tzk5T2ASOrvR9+jg79YV5uQVEyktw8Jrf7pVTLlFvyfWH2p9QkpPMgItRSdNGZmog7BaMpNahmqrsDawsvelC8bVqaf2ZEhyyV+2SEGcejdcouD7zfE6lWHeznmfvkjee3dwp71q7o0gPenwkwbIGcJaDqlRIfjIh+4W3oZAaWZnzvUXW0vW0SWKO0VckxUrPgqx09lJ1DCikKZosxPjYKY45FbXDY6mht/NQoFJKjUhFG/Ee61o9Lnw+1le4J1HuyiaOFRjkrfTYyOPvTDa0UZis1vg1etTbPQrHE9T/NMfaOyNM56MvJ5hb/4otNHR3th48uVw2Hm/nnG5R6JSpLrDSFFa2a9cm+Drdw7Z09s9yfDuTsz7n8oYdo4Fl3r4SaDymR1m9tgezqFbCsUrUc2b/ryhAs75q+9tY3OeQjZLDWKSBtcerzPgI64FHtw6wu61EZb0C95SuXWc4ecerCPtAOVM4yt/8hLKyPiFRxs8MhhMY7zYSAzSHDJyWOsDXS0Wk9L2LJwVjkN8l0Us37wmkBHHl8WpOHF7Tcp1UdiQPicF+6NpyoCWrnL4QicPVS+fzGi/me6dvA8qUl6E7X/C26J3QSwce7v2lMdJ72Sv8ZROzxqcryCvmtpeiYSTqix7bI1YO3RT6jlFOSfD64hapZSVw2RMQsAjzNJMIesoX0c2t55LUVG9V4Nx6SBijSgGprVBMTFQNkavilAr4hj0hdSMTxL+fkojGc1IRahCEUtAxHkPQh4fznNoQj1KyTyBzxrEAEI8hpQ9su60xGsF2yIvKcRK+G85WgFsCPa94P98cvHyOdIrqsb5/JtYXFMs2p1cNHwPKxlq+Lgs1NfT2GW1mwjKa0HfFcAFzHIQsAkq5CIIAMNhJBkKqcUZod0iOEXAh7kZpCtY2Ag2ZXxISJ5CaIZSmECS+7tff8whqcNJyvkaLl4moNi7qw/p73ddlLh1dXraAyNFayPY950HjvQF8qtncpsc+nNI92pOFq7JCreuzBbEU2cHnTpyMewH4ol5XBM1XtiasR/0QVHjYWjmsZlew0ZylUOwaMO5zuKkPMB74x8s7nV5reWVSflT2FCJLvpJiZe25kjjGc8VeVeGgRQOtzZm2OwVMFbg7tENTGdDnreiHOPtx7NTiGRSsgeTDt7fX2PPjXOfC5aTlWciUmQDzju1NWcikPiywUNzbHyZipaU36aws2JE5uqgtUqtOAmgIt0F9b8E6EYTQoEmYBn8HUWi4WvTnUZcTpME9n/agy2rT+gZZxzXPtIa1e1WuhFfzILcxjB/6c2b+Nx3XsIpxjyB0OTMISkTfPjSAb79G2971J43NeGyGt/44TX81b0OkrhGZxYj/r9eZ69vQbNIFfjS4PNZgTgrOex5dY2KXZeT0m6eZo9yKxfe7qlBupfAJ8SE3bQW3RkFxhNvvKtHvyPlNbeSJ0MEYl99SWX5cY+SFp3zVlcw8k/Vfn2UsQiXhlBhG5KUconuMpcEcnjGC4myMJ51Ogg1FtRcsJ5yyChNPJs5hQQI1cUhFO4HVkJUClGchvoUH0IkEFFF3IeYIrUlerLD68w0/n3MImrhqECpGqElK0bLYlMxi/20sIxCZJuZWr4kkjewKgW6JJw71Neouwj7nf+sPiZjvEPhd8JCaXm2kTZ3LNuteK4R2CKBWoUkzlVgPNxyguRK6P2yQCISJCfjEUNucyoZoNY2QiEmCLOSASLecB4Pbb1NaAopmENToptkSHSEoigxIzJlKc99R23XamFqdBJg2O+w4JuMSYHEvN/yFgkVHsKxJV7BVA1qafFzL8x4f314QDnLARs55kjgeC9ZeLiAL8bt9WtsXc9PvQiy9MUkw96eF3gUgs2v8NJaHkb5mMoiOTAQjUC3X2Lr+py/d9UoEave18ThaC/mMJYPGPtayW7fYJPyTWiw74JCFgJdPUQW9ZjzkhMuhM50DR7NPliZ2vMnkAmR1RrBMZDIKTrxFL205louUj7kiSQw6BJYo1fwfutFGh3d4f3kbIl5VZxaIhRinNcas5LmwRsgRKnGYIsV1f3dkw2sdyp0nScUmFear08eeaoIveiFYqoMxrl/H+N5gqJpc8rUvSRGLxpwY1TOH5qSvbFlltfvEDpOq66nkpMpK8t2fxCH4uGkw3ukaBQGSQOTGDbAqIiaWrPQ2k2ThpU6KdUTJ1dAHPZioSgC7D0vBCY5KYXTm49QoOQJ1o1EHhkUgwIhpujvvVehzHxNiLTe2qOXtKrAyPtjqsyAbGmpcxYWhXpK1/inDNqmRenNyvOg8JLhsw45IbGMpyjJpE82E4BiYhSm9Ic42S7yUFvhdd6vnaeifZ6UVQvW4NSgsswaQTufwob2eROA5wwKG1ZV6306ZB0RvAaqnfGf9ySXIi8E10XeuSW4LRU9EgxbhpbhfKjmFh71OMcgsuh1Uq5ZmpcERXe+vQVrUc11I+N5zq3KaxkhtyUO8gYv6wa/89pNPGgM3no0RiRSDKRB0dTYM55p/Zr29U7VWLGSpOJfng3li1ZJmJBSPKIHizQ2KdRVKUxcxQCkp7GpLWdjxW5thXZQfMq50Em28TF64jIR58e4xQWW6RPjzFJ6nih2Y30OitjVCVjCuS4yDglOr2PUTYMTU3sE3mJRisAxaf29S+1ZTkRL29Wuj3D0qaVAM16jm6W4OuzDVtQ4VLKAo/5rNc13YNDxezp8zvU94P5gLuBN2nZbNnxJC4cna594MwkcJNxp+JYL96BV4LVsQ3926Qm7ENwjL6YlrvYhhyBiW1QeIyNbLKi/hza0KtGiCH1djQgt8jls6+MQXJNICqxhwEa5CBs+e1DvsooVi9Je8BM9GMmbWFtEynJIsGLDLGZDrDKBB4a8Ges7EqyqSBL8ZCTy84a3UAe2FSJjJlqryuT4H//ZAX7/X+vhTneC0sZ4/3EfR0ZzPdjmsML19RxJZDCaJnhwRD3+JJchTHPPLUpJyE7cRaxus6FQNDMczB6hoBY4p/aBQxp1sN25HtaQ4F5+LszO/kmCt9DldbDWq/DitRyxblBUEd7f66DKfV73yqDAtSF126jwd781CB4YCe3u+fF7rHD2fm4TeEG5091qFTA+NphNLbIu8Mp+D5Nv3/Ehj7AuyqTGiw/WeYHWgqw8i42kOqUwCXdCQAUlgjfgljVKtNCpwW8b0mrzVZfb0AIPdhy64nx2fHq2iRX4s1lnEeP+IhU+K4uRkXirSBdkvuedT8e/lpTcIuI83CVZeWOjcJf44C5JIUKK83MUB6e2HD2H7e3Q2vxjUF4cNsyB3R3L75mADdeuSzYQKLS388jzItLzf62T8zMfNQrvV8m5X91ECVytvYiQPv/gE9Y+ASvrEhltTdfhTTYqJt6ToS8M1jWDhEjgUpG5zlDkFYpGQHaOcedqF9WRxvdnpWde6MQgW9FWc6aKEsQuQKYPsQRoog+JguDyoUjK1JumBGZj6CaFybooyBspna8h+aiDlJVQSChXQcD0WHPOZzyvMTeNx159DD3rnndwiIVChlrzXmpsyHwIr9Q5d0MeibOLWp52I4qQI1O8Fz3t8Wps+WlP40KY21OZiQDXXmq95dIXT/F4V6/nKYXubM3xxouH7F1RLVM3KU7tRPbKr0d44/UeK5O7JxZ/eLfgvbao5YTEmijxwuaUSzi2NxP83Ks3OQ/WlGNUVPfEoAWNxydZoBdbPlgnrXFl4CmxtnolXr02AVXM7YkUL6Z3IOMYCTUTDRg76qh8UOz4MtxLMMVTz6uXto6RRZqZKiIqaaJSo8jg9uYEvdTXHh5MEmbvoHc3Kij8Ds4XHs46mBSna8l8Pl96cmRiQjFz7M8fcc0iQeQ3s23ucfbB7F0MswbDtEReU5gw5do0lg1Rg0FaMRw/LyOmAJvXMdNukYL03dXJKIgQRRl/j/dI5QIxvniJxPcuNDLywITn9iCUcMvhTQaP7w8nMLQ1ekmFLGrYqaE+gjbog1hZ9JMCGfWgSzaYyoyF2uaG93IczghJ4Yt5Sdt+7RVgbcMrlHbEicCb3zV478cVoqyEvLuBGz/ePlWATKCIq1EDlxaoPfMaXkrKBS6+hf+2G2lVUQQOVZyMPGs6nrAAnz5ogtnKu4BvzIV4f/udpKyo7qcjLXtd5hk197TluwReuWBTUlitFhel7C8eKfMS+hqLM3LmI43zwoZkCNDf3ORanUYeuuAFyhCGvWjsndSwhqyphJPJh9UMsdDYyDJYSnZrIkCu8Oh4zC1xlEgxsw7jomDLWzuDLqEQE4t5LXA4meLqpsAvfLkPVcZ463EObSv8W1/p4GCs8M27I6xvbeFXv3QDJydjfPf9Y0Sih/WEGB8qPDyi7scJhwWIEWQ8HWNtkOC3v/4ajo4m+O69fUxkim0Ov2hYMX3u1+m9BKI2UsjimOf/Zi+CUQ7vFieYE9kjJe0u8MR+moNpmNjslmxxG+tJq4uqRG3qULfT4jRcWFc+t8DejjMwllpmgJGJPmfsLlQ63j+JMM8NDvQYECUms2UIkUtqhFecNkBRIqKNotCYXFVEASS44n2SMhx2Krxx65DzZZ5m7Ex+ker0OiXSTYWIyjV+3OB7f1ozg3prQFCOb9CrsHW9YHaJKxsRblwbMstIM69RnOSMhJMyxc5JuswxB0Bipgyu9H2B/ZVeievDnHk0ByOFYbxBL31RrEtfeVTsXdr7YlYK6Vhg94hWr/FvtTKSC5CH3Qqb/RJFqbBz3MHx1IMt6gCso/xhUVPX6PPDP+S90n1Rzmlaj5jGLYsyXO+8iJTY/GfAm0d9HOeCAWyU9UlVycYoed9zpohyKGsVCtQVo1GNE0skrqU6yJpRrDWRnwu7qO9azqxg5VnafPGzCi2RfLZJ8rU5CmQVfy+hV/NacyqHyl7II93JNU4OB1DoMKeqLskSVV6IqxA3bnMhNCjcw2Hs4K0oeZpeSLVFyMavPgJXVJVqEashNCFhVYvcCUgoE3IPLEjtYlVKAm3YpcBtEYerAIPnGXTZuVVc43K+B0Ue2GoXWIdRw9ho9pwu8koX98NEpYKtufMVmODwx/OOVeTlTwrWaJO7ZAC0oBUKG9J7jrRAnntyiLp2p97xZb5/0ig0XOjrOOcyFQ36LoI0Ck75RC0hSxtKAlsGv7KQrEWFmlrv1AoRgwUMGtFg6iq8lFi82iWqow7uTSckQdBf38DUjdmSHNhjvDxYx/tVgYk9QmYybGlqWhBjQnVhsuaGk4SeMrXvBrTdbdCUOXL6AB1UkfKFlh9p+A6yVNhM+Tx6PZWruR8eGT5NpjEXCoXxrBvSLYl3nj7aFbqaI2vX5uXcbwJxrPWHniunLmCL3DcGJShg4xYgjra4sW33ZwM6jrblpMwxymcsmBhxGMK9QpymgFiUtMgI89piRpXO8CCONoLiv2epEugcKqzN4gSFJaE39amFRX7GG4wEwafGiYb/LMtGlm/ALhan8/U7/DcjNWUb9g35Yy5Id4tGjdb63Jd0ISwYknkcKgwGo1z8W4Z85CoF3VIoG6bobw1vscj9XjZSwu0Q5VIuysA9y405mAVEoqp9Hsy0ecTWW3a+1Y/3pk/7PMt7bFeRZ02JnEcJUwdnI7zS+Xv/ZG/xZn/vt67h9b5vjkk5tA/3M99BYJbgw/0u5tShQvhcmQw5LILQn5TH3HnCcB67WXRDDyuF/1s0OXbmD/lnLSJsplehqeaMeopNE1bStORmpWfwIGJxoSgKZXBlWPBc/bffiXF/p0VwltA3b3mIrFRLAj0SaLRo6GVSi4FeIlnhkHIhxMpKITf/TPkvQhcmUmCNyHzTOvBxgS2KhhF9ZuEFkYIkA5VzCIoS/IrC7hy6KnPLeRlSXFRUPJ0GkMFHFOKUZ3u3ii/8vTjD4kzHf1BHkHUU+gOffw6FGTnkqYDbN3wI7jxBTwo+nQu898Arjk9i0FxQCoiQlqy8CM14TTLTflE47Dw2C6PhvPG0V79XzFlxKCKgjRv8/LCPY1Pj7nyEbplhIHzoILURprbCcTHB9lYXv/3VbezuHeL771aY6wE+qLrYSMb45SsGwzrC/bsHqHONo7FFkUu8t38PSRbj137+dWyU+3jn7j0cuRhf395kBoh7+QBp0cU1keMoBnbLCW6mHfzGV29CVBX27h7igEKdVPukG+zZBpkZP0nN9IzhsGSCqUyNo7pCSXUtDZESV8wkciXJ8PAox/1xDqv6SKy3W81Tu4a7FaGz8EfOrDrx1MJrFs4cOm2LRT2wppUlblEBH74rILpkUBsuQPxN6woZYpu3zHDS3oP3xlYaifJlfC8oK7rcUqaFrKtgoZJ1TjB6ut4CBCN9ZundnT4rr/tHfdw77LPSIcj2b7/xkAEMV/ozzue5M8KZuvtG2XVWqpNc4IN3dlnQPthjWl5+QgI9XOnlrLy2+jle2Z4wNrKT1ahGBX/vZFbj0V7G74WYJu4eDDj8PSpqPJ4/4pAWsa4o1eX5mBURIu3n82Cc4P7sfUgdtRPA95PpDlJ1lb3Nm0OHjW7O3sxb+/mi71c/0fjq9R57FdeGBq9dnyCLl2kSEdIfOycdbhZJiuy9vTVuaUKKbUq1uMIbyKPqEJN6dEppURi/E/WxEV/hNRHJCNc6L/A90u8eTN9lxhUVR7DlMqQmOxluDB+zYn1np4+9k5TzosfzFDujHntGVJTP8xdyYIXNcVzucx81ryjlk2UiFNK0JYpiziszlR2spevQwnNXTvIIo3nko2FMgdWwM5HFNa6ulbjSyb3ZmBDYZdnZXP/i+v+VLwAAIABJREFUL6cs1N57O0cdonrHJw6zGbiw9M7nYmxf1+yJ0Re5M/uHXnivL3Bt2z/QBrd/tz43NgGODoPSCiuXiWhT4MqWpw9JuxJ3Xk6QdSXy3OLuOyWq0rKVtLcPrlFq6Zw+akqheU76ei4afMYxXXJrRUgKB0brswqM7pc4z+LoGQmEn9Foc2ic69OnC5YXqY6VfAfX48CHOC7yRKm5Ya0EcmpT0Y2xESvYYox3kXP9oIsyjxQkNgxCItYTZFLjVu8qyknOXGe1dJjbObZciWHWY0b50dyikhbHUYxJHWM0OsFNGeFX1zPURwY7xzPUWYZBQvVgBvl4gthcgSGgi5aw5QypLLG9tYbiMMeDiUDhEuaDI1h8WY6R2Dkg15/58pehLREozxCACYL/bRiQlDI/IHk5MiIS3jkGbsSlz5aF+7PoX905NB4rrjBvgKdDgThspQWO5+NFIbNwyw7HLQiKcxUMfCDjNGEC70k+Y9yY4eahRPfWYJjF2Oh2fSHzPOeQIFn887xkb4baz8dRzCHBqqwZtENZC5/voNymQ5zGcNoXMhd1ze8wLwtUxOoBh3uHW7xHHh518IhIup3EzfUZfunze3wOhZEae1qRMymu6iHu3oJQGsVshPc+/JDf32hGSLYNVqppXOPa+pSVPimym5szaO5PN0M9O+Ac4WTcwaPDISut/VmKh8c95mycNYc4zHeZn7O2m4hxha9Z1gSIqTnkeDIHRtUON370qUfDSLsb3TsYxttcl3i9f4Lbm47JdceFYQVG03mlG+HljZTf7UZ/imvDktnjTYjWEGhjWkR4fNLBuIhY9h5MO16BwcsdbwJQfivHqDyEXZTU+/Avvaf1eCukASIOd9LvqWPEo7nvJE1M7yhXyITpeWluA/JUKh+KJU7HSDlmm+co3IqxxeJZykAK1ua/zpEYYgnOa8l/2/pJX9/nQXy0LlWA6gvpw0eUBuLVf4bBQcep4Ory1RKThawNEFNyca08fa4MqEBScqtUS54w13smOtwUe2MutCahmoNoSZLLYVRqh8CIKbFgnn5CWf2EYbSPYyyDOo6fn1+6WrK/ryowz87ia6LK6hJZ65/F/Qejnu5tPvM9zurKh1FW818c9rUC96qIvdPiKb3BfvtrL+De4RTfvT9FWfTxoWzQj1L8G6/exMFkhh/eyzGil4QKqS3whasZeyTf+ZePcTItmcVhe1jgG3e6GB0D33vQIBEN1tIOpsphdzbz6E+doqob7N77ELNqhv2SBOEM784rbA27+N0v9TGaOLx5d8pgjS9uXkXPVPiTH+5DqAY9ahM+pzxQg/Wuwq/fWcfhOMMfPXg2PtQF72YYp5zzmjUFjurZkuyG9gazWChMJwXcbI5+qrF5c4CTosEHJw0KPUT8hAsuuC8eM5f4XdNqmLD3VkOKeEY2Fix0SLGULnTFdsvS1RZJ2PpxxngGjIRaixiJXCimi+JaIKKAKql9jML1Xsr+2VFdYFo23LWY7pbyi2SYJFyiQpRTBmVZM3ydO1gbyQn2LM5AALmKwimy9mw91O6D7hEiyAnJAB0SljJQJlH0hrslnwqFuRUgk1umGagTvPYoPNXmNFaLxa08haT0XYQVC1HFwtJvDC84g2IwciGG1ao8CkarbPPK4X6s88haGWQdy0rZhiZbFObqzC8jub6djC+Qbp+V/s2oSeGVRnvtxXMjFK4vvGEXIC0+T+izMmJROL2a9GhLOUKL2VNryH/HKuu8X/uR9hB+YuQgY2xSxCgoUhWuKxffvnrm2V20BASKM7/rphU6Uc3f1UvqRcBWOqwUtIuzJ0JPRpYVy4Id/pyNcR51UVU4H+rTAlW1PIsqpOl6Ui17aHHz5URwgzn6IEk96pFGkiJo2IBi+hQI+vMGvfjX0wKEVSQy2Ns3fZy2zRmerS2jDbiz41fSkSGr51PwEKH/V1M57O4GQ+Gcw+izQyNxv342W/tLV4E6r/FWQ2JtjuM4QT/r4+VOF6I+RmHnmCpqoDjHHVPiehZhvzTYmVpUhYIyE1yRFq/2O3hnpnBQWGRKMLEvtS9BlUMKimnnTEl1QuwazQBlDaZbGs0abHUKvLK1hXfsBGNTYssSXHcAOx/jIbVR7yrukWWpq7Mz6IkKd4aE0KL6hNkznjAU/8JDYzklQgLXenoq8jQilig1Fz0zmpKtxQiddICqmXIvMdik5dJYTofwbVoIyKJN7VlI2FD0XJCUvGN050IAeRLcC6eXgQRe4DGZr5JBhFn2PPy/BOqmhmFOO98qn+Wr8pQ+VJNkTA1NhW+NgKsrhsnHgpC5fn9zsTg/s2/eWTNw3Pp6yWBdJ9x61C8629KWcIhShCJYy97Hw6Mus07sTBscFTt+34xL3Dvos5LtpgYbvcrTD+keVHKFBfCs0nj84SH/e//Y4vFxh3Mpx0WDw/m+BxlIiey4xygwqi2iNv5ypZMGzSWFDR8dd9nrOi4MDou9UDpAxcnbLL820hjX12YsA9K4OVXOQ8d2IoWX1hKsZZoNv25EXJueMonyVz/e3eAT6Lna/XVvVOKP73nCB2LVuHd0AzFFDoKcldy7UHKBNzPLM+uJ8i334TCqjpCb3KNhpcR29zZ/9yArsZbljGsY5Q4fnrz9hFC3eEorKtsGr0OXZOG7MRCU/saGJwyuao17B9TANmbaQIHzvJ9TKzP8LVcUrUfBephYgzUCxwxCh+tQT+YRrcvQkAi559Wh33/bu49U2cy5x2cYpCKgBvd3K5wcNAy0CrV8bL1MJg4nI6yEK8AK7voNjTe+lgRQB8JEtJaED01+CqJsTx0UMqSGhr7h3YpcWRmtVdgCJ9qyFfMRn07g9PU+yniC23DVUjljFUrRotQud7/vP9zlPMm/+uU72J1M8cOHJ9iv+/iO2YETBb603cfOXOHxjLgJO9g7SXBkKhzNJrja7+Mbr3weHTfD+w/GOJj5cCVB4Q/zAiRS17sdrHVqvHhzC6NihB/tjGDnQ9S5Q38Q4a986Ra6doQPH+1hb0ZBPILUW+wdn5Cm5uaDVe7wwSiHTARevnYViajw7fePcdhkl3jCJVJ2airMiQXcm9esyNJIM1M9W9707qzmXAwJrsORwLjy3IsJNeA7U9BFilHbEsPI4Oog5poy2tBWKUzywu9JkXIYrXAGE3uxFeRBE96j2Ipips7q9fvopIbbqdzoEUN/jLuTGn/y7pTYI9FQ/7Wm4BxTN03RV5pZ4xsKs+oIO1Lh8OAISX2Cm+t9DnvpymCfwlZJilpKHMwmqLldTYohFUAbh40tC5045GWJD3amyF3C78qGhqXsugU6pvuHfShFPbF2sD9/wMLy4aiHD/YHbCBfX8uxGRQYhbuS4Ut8rcOdY/yYEstkbM26eHAw5PzbcX3IuSvK88ybDQi7yUp/WinmB6SOCe0sUI7uYJrh/uEQRmhWCruzx4yWW0u2cLP/IoTV2OzNcXvzyHcjPgNqYjSqAocDX1hLUTClRc2E05TDomvvcNdph1HxeHEehene3vcCW4kKh6MXoQmK34Z8Q8+xttRBLDwc/xMhCqltCYWNr3VfxEayzV7v9f4EtzdPkEYC7x0WePvg6QaaPRMV8I2JjY8GeEodXn8uGEUe+BKaAocgge8EvprGfdLHWlx/ofi91+qCS+2jEI1XrNaHiR2VAaj2qf01l46U/0xbswzZnUfsSpo8ipdwVH+sZwkn1JowT8Kv2zqt1WtRzqXTCf1hjGeWaFcSKz8KITannzuQJC/g3+14dhP404NYOEIo9Vx6JBfyXs8aZzkZzxst8cDqunArZLyX/a72vXiuwrO5kecb3DCwrVoQy2uf+q5gTT6uIz5ueg7Z6Hljf+xwMxO4MyTKmy5sdYyRM3gw19xG4+q6wMBZ7OUOx2odotn8f9v7kubKkjSr4+53fJOkUEQoMiIzuzKrrKHbKIrCoM1YsGDDH8DY8AtYsOXXsOBnYLDAjEVbt2FWQI1ZOUVmZEySQsPTG+7oA/Z97ve+qzEkZTYUWLqZUhlP785+/ZvOdw7LI7TNArOoxadPtlGcWbw9WKKofROtcTUqXUPFKdJU4VHq8POdGf4wL/A3pOLRxKwW/UBpfPJ4hGZR4qvjU5TthNnpa20ZSSqI003FqG2Ls2KOHQH8ZDRGW0u8PjNY3PI5dPyEXJNhslr/LChPT4i6KMDqJTby6MSi0DQCBdXHiIeRnr+Sgx4jeuk1p1ZHSYpn45zFK4mwlxCM1GlOiznxNtJ9WJgGC6svz3sR6IFcaBSmxSWiumOF3JaYtisWtMzSx4jzEaKmQS3XrKCdNgUvmEyUnHryZeL4XzdeMbtpfSrQNCkrOEejCYMxiAWBWAzb0LhLxTGKMqNRGor7racEUtY3VBuvCceLoBAhRRUH5gz0njUZHeO8nAyJH9LirJQI777z+6ZaC0ePypMds0CmCMhDH4EyMjF44l36jBBzvG0P8fYGTDJbTNcD5/p+I8/sgACGcdyUK0SXgOxFQPr6KKX7qEbEizJ86o8BDZzii4KkztWoV/8EI25HQABg9H9x3VzxNE8yRDFkJ2meM4UTZ8gU1w/pcuk8KGOubqFZRhE2KVnLgJJNg04Cy1zFCrNRwkKWNDOI8YMcAGLBpDk7SnwEXhOuocq9QWMu2xr2EthIcJM/KWqDKbJijBONXNa+ET6pMY49WTYrj8uUU/KpsojF5q7PcoH9QERNB4+GC7oITcRd5EQ/VUmADgPqBWVatKDHR16oUldbkqsMIXlTVWVDJBEimBBRGu2YWJTSksPrpu9E0eC8wmjuAMqgXqZ/+RNqigNLzb966/qIEcEYUsPyF83NonLvG53ROtg3vQH3PaQCW8rg51nJuXRSdv7ylk3NfP8r4O2bH4h6/oZBz3WfG5Y3iM3b2MtyrfDdyuLw7Bjz0k80kptvWVVP4M0RydcbVMSSrmus3RG0bqBkxk2/L98cwawLnBYkbinZYD+dAH/55w/x8qzFyxfv8LxQOFh+i4J8tGiGWaLwk1xiFi/w5uAdViuF03KKlclho5Lpi2zl+dsoXUVoK50qJp2dUz+aFjipSen59mG/60X3NpObUnGF84Kpvi9MIpcJL6zEhE/QdYKKG+f6esmm1hx43qTCUgu8WTSImwoqTbknxjGdDwmAapbmr0P/1sVnQgwbjmVjPJcndUKQ8XatQZ5rPMqIwivG/rJBXQBHDfVfTWG1xFTWyAn65jzai1gfqAds90HKhvQMLV4f1+yYlEWCE46iJE615GesVIPd2QTEQpepBGKcoY0d8onEOJF83s6WnOIiKitLDbq8wJOqe4woqvB0p2CDRCxUj2Ze+oPqYb9+Peda0sEqxlm5x8aOkIdqVLNRWiwd3pxN2GAR63rXT7SVxdgeT/0S7HJWiybTUbcRDuajcykoSs+Swflga83/emBIV2vkm+BtFqh7BBa1xe8Zuq2RyBSTZIujx0VTe2ouJ3FINEh2ws8d2DDDHxQFXpcHnJK7TlmZIO2v11+yMU1khofZEygRo2v8EQGef1QdojAFG9ed3OLj3Snfl2niMI7n7LxQpPfqdMr1vKMVrW7zG+e1NQb/7l99jGfjkvc7s0ccAVEbw97eDE8+JqBMBl0do149hzBrNDplVqDtheZs1LslgVE+hnOksFzgcP2WSwdSbFKGdG6jZIJHoyf8SRZp/PSRxihZsEr6J3trPN0q2OGJ0kdIp8/g5AjCrolxGI7JjyX+7V/VqP/ZA07V/8f/HiHaP9i8Et27TEYtCs7CH35b44vPfGFw94FAnnvnhBeoW778EfUaLS2++aLixX08UXj6ccw3uSwNXr9ouC7DUhV9L5Lg5uquV+z4ZENzRFHCWejRet+g74wTcBc/hb+59KSsfWMvG8RbXkcwePKKaLX7ty8+h6hy8HciBubHKW7QIRo8h4hZSfwUNvfoI7u0T+FZQRAW4yE8QAYGlLsIWXZjsUwgEskR0UrXKGJf4TZ17b371vfzEpN75Bo0tfYNzBRpWYUVNZKWAid6ghWHgQUyFeGTBwTNr/FVqzHHGKq27FlmqmI+tNlOjtwaLNcVijJBWROa0XgqIKVYr0pQxNIV/MmokBZXLbgUdUY6c6RvdKcLHuSMQ5q1MCHUpvQKwc5HEVIVo2orRvY1QgRtJQSO/m4EnTKhcNIYzAk16TQ+iEhgUjCZKaU/1rrE0jYeut7Rqw328iBNONV4VhSoCBwhSFyyhSvWiB7l2PvoI5TG4Tf/40u8mRs0yZRhwJGs8WAywt5WCkWLoq35ouIM+OjJDkaTLTw/PMPRcYUqG+FANzg8WvpoioAcQmNrYrD3eAsz5zCuHYrkDHWyxs+2t5CPZjhaRRw1kbObyQjTdMackvOywVJXEKLCRw8XHmnGd3OLAR2/3l/gb77x9a2d9DFe7D/FJhZabZ6EmJ57NJR2epDH+NneFiLlGKTz1aFgeHfZkATI+NzTpPdgdxLg9b0m2ZTf73erMZ7ve9DAaVHj9eEJ9zjNkl08m0yZrmquPLJTG4XDxRRlPfMRaQBY0Pz/5uyPjBK8adBx1+2i32472UUUxQMOWI+KJnYPMnY0fv5sCz97MA2RCaFNl1DKYn8+wcvTGQtlHhfFrWb1jnmHvWbua7Id8RQhKmOBeJxARQks1aWpAGqIKV9gnLQcMZEBW0USmcp9VK1DjfCKlYQMWipzfnapqjBKSh91OYtJXGOS1XBGI8o1slEEESUwbYOy8ihEOrupPcPMnCJGA2U+QGS1P5AObBQXE0csqxHu5DgXjCy8mIYbsjwMF/UOmWdZj8ahKi03lhJ9kVSCuehkSXV6H32FunC/T7LynSfDSJxwnNpKrK0PprONPzucyxjHfjpGzqcFjAv7iTwMGiHV+b6U4HBQhFAJgalyG7XmwTG7zwJClNNwjRWDaM8xSfB1nIrdoOjsbRP1JMK7yvRtCPcZIpDzloGbks4vlRsJ78L4Gk4UkjtdiuU2cd8xcq6buLBQERsFYZNiLVgqYStymEiNbDvHqgXeHldM6JkTP591OD2zKHWCE6NRSE/G25QN3rx4C103+MVuhJU2OKsTFCBIvcaqMvji7RojKGynI9+HBBLNlNgVCVpl2ZgmKsYkzlC3BitdoaZFx4V0kwsRt7s/usb16Sd/kwlav4oI/q9RSwsTeSVoF4zPxcfONDyU72feQfpehLoxjGikehp5wTTfWtkxwctLvIhZU/C7GzU+0tEM3DDQJF+UZFhFUzTWolFTGEWpPaqPWb5uJlQmA0zGhJZIJz3hr/As8kRnRO2hvhfMCxw6uRHL005B0/lR2ki0bAjzesVvJS20pOslojEcFftp4aMWA2JX0Gs0pkIsbdeWew5J5z8LyEFOEcpwSNEL5bqQ3uu3DbUZL29jA5/qefLkIfjCPwAEpn13ITLDOT7Wju/Qt1n75yA9mgcizri/yXe9xf2V+O/ekvvy3KTyFGXUdCxCKpGlai5MHqoVZ1GAQ4T1WSnDhL3+PG7PBENAIhNYMXqYcof+YwBS66N8ItS1sWewcZ3srL9zHZvL9dCwjQvSo0Fd96S8EK62gQHfitACQjJdbSD9jvtuEq/8rJDGEpEOMrKUdoyu8MB7iHh49l2OeAgs6NJ7Apu/IaQAO6dVdBRGMrRYtpalwDpZFBG+09/UkMqk7zP5r/V6ZUNg7XXTg4zXP/+Q8qou9GK5EFVSA686l+7rGEHe+5ABfB34AGOqSbki5GYvfC+wui+NxO/KDPoKOMT7TBEttN+1PpVHEeOWsozquq8JI+NHBv+zdcY9cbPI4O+PajaQZFA/K1JOPY0jh1+Oal46jrTCN837UYiFLlnfizw2Mn45pYooq01qvgyvjpDFDR6MRmgrg1KUyCPK02dMfnqm6dwM5rZCLWPOu1fC4LgeedmUsYFtBUrqy9cJzqqUI42mMljHKWoVc7TKjOkkORNHKI2GdSXP65zE4CywbCzPo0bXbAQS542B/t5sT5vmCtrhsiwJ4uDTPkr0QvhkvZy4TMxL/4641uFVo09ooRBV0BxTod9GXQuqeTSmtI3jlFapBFZWozIVbAJ8dbZG+cVb2MaiQI58Og7CyBp1W0FFER4+2kVk0o3RcBZfvjxAYc5wZlKMsjFSE3kjonwtsKhrUO8rOT4vjyuMbImnkxSf7D5Easd4+dLguC2wdBkavc3abkoW2J5QTYMa6SUakXtHbT7ykOUOjk0GsVF4nGeB/UPhuPTUTJkaYZxM+EzzxGCb5+pwOKYdolQhRRPzUrPqsevo/C/cfJaxFxKj02ygX+UN12lpcULii/Q0ddGzdDSOmvHf8a6IuLwbR9VrtK5iJnZ+rsKz0bek4dPPFMGGCWHB74Yn5Q3qALB4V71F1o55e39PIk/RNDCyxH14QGlLt1kXKItyvLZY1Cd8/RUhYC+wzTAPIQu6+nP/9//mz/DEvfbnIxWS0VPIaOLxG7pEPf+anRpu+H5HaeEpG+9VFXlRTXExBHAXfnDpb4w+DGgYFyqXR/MYRTHmbMLWrMUH7gXjL5jtPn+MePSUESOmPICuT0m8B//6FwbRZ0WGJAL+6dMao9j1jO3d4zw5cahqvyjP5w7LpU/pzWYC47H/nPLR9Dn9fwdeoOhmOhGgtHa4N/ybwBoUiX37Vc0HoQWf6mNDZ0FKj4o8npPx92m0r9cpFprl1jgCu6b8xoNQQeOU+gl8sdMMupK5pnYPxwiDx9QGNEzHLDL0jlRI1bHRHfiV9z2WYG/LB/b2wrFuM1RIRTJ83skg1ulCdOeL3k0QM02dRU5pNYok7PXkzsNBiDdKzxLbPCmxLkqHM0epL18UPq4tR0xv6iUqmcBGKQsZnriSdarAQiiOiXARRPTOWofnhxUymrxZAgIwLyuqS1QbM048dtRMWhWhP8hHOanzoAmKFijyOC7WnkdPhT4gZzGOgY+2E5bR/+zMXTIqd31QPUpKnGdt9x5jRyt0091kHV42Vk3iozpSbZBuoy92XTxM0HBlM64pUA2iZR69JUd086VBcXLG0v6z6RjTyNMRUVaFcnn5NMbD7THyiuRrLDsdx3WBPx6ucFytkU+2MEu3kVjf9Em/qKWxMj460EZgv8gwags82wKePBijdTt4+eItvj0qUBPUOMkRyQpRFmE6VcjqJSM3yeNftxIvjra8gvag10tigicTX/Y/qY/wZvWtb8pNd9mA0epKKayPHy7P9TGxltgiw/ODGaMKl80p12NsT8d9wYA5h0rvQpg/C9RHm/LFopljf/0mvHWbMJvUhw+KVzxX1WiTkly2c/65aZAB/nj65z2iEEFA8l31mtOD3SBWC+Ddjft6cUIgoZ1A5xUiMDIE1TvsFx5JuZXs4NPZX/aUT91Ma0yD58vf87//nvtmIMMpEaU7kNlDvgfV4jma8oC1uop1hqPlBOsq820jjMLtYYd9JHzz6tQB9Lt4FqwdRivFqkyxrGIul1hZ4sHkEFSXcGqEeLQHle6wAbPtCq4+5YhtVywRUZoro+gkAfJsQGXSRVEDw0J9XSTDQYZoOg3wbOGjqLYeNBaGbYlnbzTaQCd71QILVMUmbJMX6kkd2WzbUL+ZJ/Nda8EpOdnLl1w/6BrI6MY+O9xD9hkd1rpLKMG7Djr2qYkYWUjph5n0L4hl3kXqjPcpuwQudP7cTU5lOChielkn/KJSHW1X6VsZRBG2pXqhDi0AFHlRxpiiujdNzAaWIruZMvyKJ9LiVeND9bW9vnl5OKYqxjhV2JkQ8WeLUgskLkLVrMmFY8l5olpiZzLSiAhdZi3zJnpaG+f7qijtyIu2YZ2vg8piigiTJGfwRakLj8BWfSIiiPR5bjvHzbuCa07dhKMU3AIVN61iQKhM84HOl2R0cHb/eQB0tFIDd2OzDrP32L/U4qYC48aLjszQ/J1v471qe0HGwWkkjqh2RoxAJO8YrPqgoBKJxLWYxFTvW2NF5TTrEW1UJyzaFlRGIKh06xRKk6DNthnSnEqiTDWsHmG9PCVHMzFTD3rOv7FokEntwVA1sCL6OOIzJaajlFJTDZxu+1Q1oTMTp5FHlimaWHJDDt9nMWCFEUGyw98L2xN/i168VAzuHX819Ix0qT6PHLQDA7kZXPWSXRpxKJnj00FeWsVeiH6HdFx3G2RIKCISob/K0y4pBm7cdbCudGAA6RN3IuK1T9uaac507NXIKQXZNTR3wJUulxUFCjG+TdTYHSmoKOa6JPXnWWbfsGENFSGN3DVg+9nZHYNzCQMm+qtcto5Tk9Ld3EyutEduclQmwyskvXaZ9IENRYCkrsDlGWq8l15qhs9fbpTRzzUsi+GLOHyuvQBeh7IL23b6Pej6nphVxzcoX/W8B3PiEs+h3Rg7GXKFUvQZ2vcOanJ9e+iwkJbrbI/3fIc99aOR+nB3jbbrbr+jdaHT/bpOfEe/cPiHWcnGZaUlfltlQQvXeUkUklOxilkt7tMLRunEVwHaHrcOW2PjJ917tqPJtd/EeBGakWl6/XJUYCwtn0snj0L38x+PCiahJWP3VZ32E/A2r+iRqbFqWlRrDVNqnC0FRDrBbpIz+pDIc5k/U3WAnMBrJz1Duez0FMjgxzGmaYayaTiluKYelLZk1gcbFpJN753rSVbFoA7g+xEj5FnG2lfEwj68DjKQtRb4/KBhGishEsjBCtibj3s13XXVk/P7us1w11ip982YZ8/GUE0J82gEE2/h1crg8HcFG7IkJjolidxaTBJgMoqRNA56TV7uCKfzAv/13e9hFSElZ4hdipgi7zjBozzHIxdjRgAdqX1KSQqUBF1WAos2woORxD/Zo6bzPXx1JvGf/9cbKFehqIlKbtw3blMAUFYV/vi2JUI8/PKjMZ4+IfRigq//sB9AHFfcTU6DFX39qjUVjsqDwPmoWIfq/PeBeWUYrUcGk6KlCy7Apf23tsJxvR/SvJsIjLbxDH6SAAAPG0lEQVQVV4rw3310BpDS5p25odRio6keHF+LTrzynENdsLUN1sR/OEghRkSqbFbMgZiQGKXMB6UfYrpv2BGpddmvIJVRmC8TFqalOlLSkhr+KS+Kpmyg65yVJoirUAeWFCJnX1YKVesdw+N1izmnWxWnUVlJ/CJgiXlza5w2R5xZqJTGwTJCVo34++OsxSjR7KxUrcDBWYqIrVeCuF7CZ0IddKVh65yb/dPYvVfN78pB822xcCCQCy3Ur8sIh1Vy7lFTTeXxQsO0Pgd8l8xXt3jSwifU3Z0dCw8aaa3vHVEySIYIv0/boQQDJYy6xxztjVHwSDuI88ZIkaKp9QAM7fAy6FTdZ3Sb9Ub8Fotj952hP6/CtV4UFo/gueuEu54I5rqx0DW0JeTdDsq2QNEskIsG40mOhhoubcMIJit9jdW2BjaWLK8fG+GL36EAzwSwUiGLY2RFHdBZDToAO129DQKHXQ59c73+3MmRIjmXmcwYlUgs8bZD7xF7PBwqK1FTBoCsarRZoqy7f53x4vih9vO+MRqlyKKSn2gpW4ypJ4tABUYgJ3g6eawtNeA7pKhQSQMV51AyIbw9jssIVSJgRMLsIikhCuMRcgJR2ZajK6Ea9pC7Qj/dU+NiTLTDhwTUyHP8YdXgxdqCefCpBMBgjxYdVlgTxNokoA4yklmn855IhYP1S6aQuml0YIpaFzjUnty3NruI7Cf8IvfpOCH7ZmTP9IALM/38oNlHBrJkWrALJbILzPv3HZN4G8/GP+l1shCu57Q4wFG9f6e9EryefsiZ+3bxOZP4Xhx5NMaz8ad9xCUD4GSlV/hu+fkl17esI7w8ylETiSjTcJxBMtLTi6IK550Ew3IoXmqq1YJTtSernBeVk+oIh8Whj+wI/NMx8vPY1KQIvFMVlefAVQki+SEycnScxdOHK6aSou2LOsHLw9BTyZHwGUQg8PWIyzGz8uxOq40Bo1AsHiDTrnp4Por0J0RoQvqh2GDZSsytPLcJ1VVGjUUdtrnoV76PXV6EENXLlNxNT0vgfCqzbPzKb3WfHeDzWRh/zitzz6JY8LcX1qdj1uEehHI4S40o7jNTPwhFFh3rgPRxbhGBRQG4Mdz2UCvkRnIqtjtP3qeOkBnHsjK3jby6QemHimoPRcET1yQxGmFxWq+8/0rCd2R0rMUIEfJ8jAItlroZpI39y0Ypv3mxviBYKHoONBdQQiS2mOc5R1hlHRoUQx6KZJJqGMwLf3wTJgHVlCilliUZz++SHKtQ0O6UOUygg6EG5T9VSrOL47u3BCe2zDPoUmLv13gwjVgDLEkti6MSG8n2OEWeNNBaoF5rNGWFGdErETUTNN8zpxw7HSlRL7kWdWyRTmihIdCHZa+XnBAS8CQPSbYKXx9K6LjGoikwyiMosw1JiEQyeASm6bgNRcqkxi4yeFc2eH64wKp0PW/h+RHqod1nvfe7oRXyqSx5WbZDeLl857qkYZjlN9ojdyXP3g9gv4Loac4GzPDiG9J49ygqxCrlfZn30CUlKuXaGh/DDdTtr3izhTUcSZUm8rhP6TXhvFq1CO6tX4ejEAwYTtlTujLzuFCj0NiGr0853zB+1d0jlQSjWz4PZkd1MWKXBBYOyXPGIwwFGhtvshmdLggzgEhfOtACVtfBgHVpQCd6xOFgbekvm73fMJn6OTVI7Q1PWQ3C3eEfulvZecxXTZJNVklsUJD36IWim/2ukvjbrxP+fxJs+0dZxS81LeKfVVl/e+47yDP5sk77Glh3r6i+9G2bcB+Uwf2ppIaDSHWf3yANc9Og43/bpL2B6s7Tf3635uXzwyda1lb7elCkuK9Ocz+MCh6yr10KRjp6xvbK1ByZDY9IoIzGeUl8KTrknhg4MP67BNOnXjHKAZf0MjETA3p2a1r61oT+El4bSnh2GmRCYTvO2HiVgTuD9kEEuGmSIE8zJp3V5pbQ1D+B8de/OUZLFFARLY4H3NT6Fx8+gWxbFrOka6d2hr3tBPkoQ72ssf7umBlClMqxPRpj6gwOW4pEas5YLOuCCYvHu1PsPn2CDAUODt+hLgtm4hhPJdc+z0qF//TNMRfX89Ti43wbrZnSU4SgCExGOF2u+F0wzCNpmF3hj29W+Oq7JjBTnCcQIMNDUcQ4mg6mhk8XN7ZiCiUX0okn9cG52hbPJmuxmz7uiWV9vUmgtjXW7fwSXo4ak8fxrAcVdMN//3sWSNkpMmhM3fMP8nEIuHCP9g1tGj4vRhFes2pRHxoZEzHgHSQ6LLp3V41Fsos800iM19si3TGKljchg6/zk2htbb0GFoltlqQuQM3KoRo9isY9C0nrml4EdTgUIqRR5rNWMmGZndqu2bmtWpKISQNZsvMtFsL26NhwKsgiww6VjRxEmnDfIBf+fvUmCRT3wIdpg5E0fIsItBGY9fG2SbA059sxRQAuXIxholD7+ZpqQmK4SAFTafFB3HCEdKXIJEl9W4nXTYKS6iSUHnHiThRSIhhRvgZ7nmuxM7h3YfS4abTX7Oe6z7/P+J6AuSu3/z77lJ2HI5UvC3fQ2I76ngf1MgFrktpfL3yPU2BLl+K8dyM6D7uf/96Idd4OvfwNS1ms/XmH5sOuZ0ja4Ld1sg0D7rTaGJwUS19Ad94h69SJZyrGNBnhzJY4pl6m6LYV1/+7o1QzlFGOJmkR61NMqNerMYiallGeNlrBKINGpoiV172CbaBFiSpOYIT1xMSDGpAJzeBNHEPHKaf9KDqjPj8fUZE3TC5Aijqb8DOfRg658ZFuI6IAz1Q+Cg5ZFHIWWN4eOfeHsXJ0dX5hpW/SYrg3/nCQIvZRxLw+YQMm4CXya2JoOLetxVa86zkMh/GXkIxILNolX8tQLT6Lxng8esYIvt4np2O1c6zbZajj3f89XrVzfD7/n5c+vymHspd/iEmy3TdFE4yeFvv99bc9WvG67Rtb4+v57y681QJXy/kC/+FXCr/YXuNffExQ8xjfHo6xqDAAJHU1zBj7pzkanaB1Fm/Xxzgtz9g1JYaNJ5OP+DyLdoWjch8NoYyHYqxOIE8meJg/5pSmNhrz8gjH3ENH7/gDrMoZA7J28gZ7OyXjFmzIZvmp4PBoVuPxtEQsWvyXw8deLZ7Sefsrxcg5OuRWDi8wGa6jyzNS1HJs1CUJwKsMS8dwUV1gz9bh1n7QswtfHip8j1JziwCZfx/ycDho/1TnKKgg6Ibpsg26rrhHuuzHcf3ojE3/y52HlmpujvVpKPKrrAzquxet6lVIu34dE17hmXsYjG8o7QXNhrPj8pOlTxpm+LZ9UzADE8joReRdaoiyYNAJaWr9vzI5WtXCRi1ipyF1gWya4dFWjrj1zaY6qVCpBF+eNqheGbR1gRFpIEWO2fnnFbHl+1Sq6Ni/SSolipiB4lffvEZmV3iYC+zOdhCbGJJ1kixE0WJq1liD+h0z4kbgCKiFZZ4+LVoitO/Vghm0Q3U24bWI3IUH3zfDBj0QN0yVdeixwTZDx7jblqMTY3vOQL9tAA85u4HFA0HfcEOQOkQhOuNCmWMD7LjvuEtlld6KWbKDLBr1nIiE8NNcdzS32tdlY3X9Nq9fHuHTTDGLPTuI0vdLdolOLsUw2ldhXcco24zPpWgqjmhpdfYR8xaz6zDlVwAubF4h/1+ixxrHW+wsVKJEvX6FwizZ8C3rbSgiM6YSaWQ3HJ/hOdnQApNGGlvjBqmo8eKo3tTAOvYIFSIgNUgddlNB4mok4HWPVlzx3T7dKNxwil3eLkhsq1v6wcP1hiIf4huUHetx+Jx+f94kl9JoP477j+vQer7jfiOmmBhPWAq1cXj6JMXFEse5zy9rFnl4dL9JOMJ7xB75S7Jn9w5lf14EDTVqmgartub/59rK3z395J2GJ+x1gbT2gsHuxDYJIRhL7DywSHTNxtmoByjcFn7z+WvsH62RJzF2ZjsYyQgL3eCsXPuGcxlIR13gmyDYe9niixdLqHaNv/oHP8VP93KMG9/r5FSGNiKtsAU7IZqj7JjXjrppsDLaNz9fIdlArPsk2UKN1B2LQx5NMIonzM13Zk4xXxz3L7WQHY2WGCyImwmQqJzTgGR4l/YMny9+vamNhbYKpqXKn2DIXEDnvTSn+HL5297DZ+BDlHDD8YPRY54HbZe6vKqGFFJoP1zK2XGNi/g7OwPmhNuw1P/AI1UOKem0hSKI4Bbhto+eOh21/l6Krt9LQToVHEjBxpVrVL0a+NBwd0J0/tp8PKgDlV/k62ZCbrj95GZB8PbC179c2JZ5lomcwtiNAROiK9cBr9oEB/ry41qbmxuIrxoXvxuF6Oh5qBtdtw1NqCakJm863nV/u05V+bZM8D+OH3K4S8/q+zyFe1H09Ec9f2QWUAzCkl1q4U/NeKFbSMRl+KmTZkBfFKEhot1GwdiEjYd2lIbPOGVncwWbJLAmBZFIJNbDZxvl0cSqqzcKGdoSPBWUAQleTjGHQqUU89IRFLokSiHhe7m49kF1Hil8ClJ2jqP0KNNuORN++ZIy6h+HYOTjDHujZ7Bti/nyqLto/2vAXecCG8/mMTqkKsMeMTUQJ+T6NHzPnt8HoaInH0KYAZO31jhdHJy/n2RcyZFBjU8f/gWrSi/aUzZg/ycG3aVvl3+8ErZ2n7rZ+4YICCaCyCeRw9PtFrsTw/f3ZJ1ivo57uifXIROlwCx7wPUsEcRvD9eveBsiEfAoxIvvGmkirhl16mm6JO+D4zHWVJuyKgKG1TeWB7LYm9WsR0YzapbrTuWlp787NwSj89S1kdH3Xf5FiJBO9M0IfnHL490V9v3j+HH8/zSc8AsQ1RKFHDG58n/7/Rmk9YCMOmrRykOUbQKTxVhEErrRmDrLTCWew08GyRgZWilskP8IBKIyw1evjvHdQUOrA4NDSMPLmQQVGy/JvXtNUzE6kEwqExijUyQGL1KEpGJgSaDmb5vW600hpAe7RtSbxO8oDTgECLiQavQCU4gUiXResdBzWtBCdEzb8IoaBEqx137f0025cF6uX5gR5FZcH7X+kOPvKtq6cpD8CjP9+J9HU0/BRnOHbtViTRRKZGRCLz5RxpHDEY0xI8opInWo3uGAe+98Wt87QRTFh3g5ZFLatkLdFjy/Upnh2eynnH7ccBUSSJBAJwRI8rA3JTQeTgtsj2juBSUTdqksnHP43wHMEiSvVrGcAAAAAElFTkSuQmCC;" vertex="1" parent="1">
                    <mxGeometry x="160" y="160" width="360" height="40" as="geometry"/>
                </mxCell>
                <mxCell id="6" value="" style="endArrow=none;html=1;" edge="1" parent="1">
                    <mxGeometry width="50" height="50" relative="1" as="geometry">
                        <mxPoint x="200" y="240" as="sourcePoint"/>
                        <mxPoint x="200" y="120" as="targetPoint"/>
                    </mxGeometry>
                </mxCell>
                <mxCell id="7" value="" style="endArrow=none;html=1;" edge="1" parent="1">
                    <mxGeometry width="50" height="50" relative="1" as="geometry">
                        <mxPoint x="240" y="240" as="sourcePoint"/>
                        <mxPoint x="240" y="120" as="targetPoint"/>
                    </mxGeometry>
                </mxCell>
                <mxCell id="8" value="" style="endArrow=none;html=1;" edge="1" parent="1">
                    <mxGeometry width="50" height="50" relative="1" as="geometry">
                        <mxPoint x="280" y="240" as="sourcePoint"/>
                        <mxPoint x="280" y="120" as="targetPoint"/>
                    </mxGeometry>
                </mxCell>
                <mxCell id="9" value="" style="endArrow=none;html=1;" edge="1" parent="1">
                    <mxGeometry width="50" height="50" relative="1" as="geometry">
                        <mxPoint x="320" y="240" as="sourcePoint"/>
                        <mxPoint x="320" y="120" as="targetPoint"/>
                    </mxGeometry>
                </mxCell>
                <mxCell id="10" value="" style="endArrow=none;html=1;" edge="1" parent="1">
                    <mxGeometry width="50" height="50" relative="1" as="geometry">
                        <mxPoint x="360" y="240" as="sourcePoint"/>
                        <mxPoint x="360" y="120" as="targetPoint"/>
                    </mxGeometry>
                </mxCell>
                <mxCell id="11" value="" style="endArrow=none;html=1;" edge="1" parent="1">
                    <mxGeometry width="50" height="50" relative="1" as="geometry">
                        <mxPoint x="400" y="240" as="sourcePoint"/>
                        <mxPoint x="400" y="120" as="targetPoint"/>
                    </mxGeometry>
                </mxCell>
                <mxCell id="12" value="" style="endArrow=none;html=1;" edge="1" parent="1">
                    <mxGeometry width="50" height="50" relative="1" as="geometry">
                        <mxPoint x="440" y="240" as="sourcePoint"/>
                        <mxPoint x="440" y="120" as="targetPoint"/>
                    </mxGeometry>
                </mxCell>
                <mxCell id="13" value="" style="endArrow=none;html=1;" edge="1" parent="1">
                    <mxGeometry width="50" height="50" relative="1" as="geometry">
                        <mxPoint x="480" y="240" as="sourcePoint"/>
                        <mxPoint x="480" y="120" as="targetPoint"/>
                    </mxGeometry>
                </mxCell>
                <mxCell id="14" value="0" style="text;html=1;strokeColor=none;fillColor=none;align=center;verticalAlign=middle;whiteSpace=wrap;rounded=0;" vertex="1" parent="1">
                    <mxGeometry x="160" y="210" width="40" height="30" as="geometry"/>
                </mxCell>
                <mxCell id="16" value="1&lt;span style=&quot;color: rgba(0, 0, 0, 0); font-family: monospace; font-size: 0px; text-align: start;&quot;&gt;%3CmxGraphModel%3E%3Croot%3E%3CmxCell%20id%3D%220%22%2F%3E%3CmxCell%20id%3D%221%22%20parent%3D%220%22%2F%3E%3CmxCell%20id%3D%222%22%20value%3D%220%22%20style%3D%22text%3Bhtml%3D1%3BstrokeColor%3Dnone%3BfillColor%3Dnone%3Balign%3Dcenter%3BverticalAlign%3Dmiddle%3BwhiteSpace%3Dwrap%3Brounded%3D0%3B%22%20vertex%3D%221%22%20parent%3D%221%22%3E%3CmxGeometry%20x%3D%22160%22%20y%3D%22210%22%20width%3D%2240%22%20height%3D%2230%22%20as%3D%22geometry%22%2F%3E%3C%2FmxCell%3E%3C%2Froot%3E%3C%2FmxGraphModel%3E&lt;/span&gt;" style="text;html=1;strokeColor=none;fillColor=none;align=center;verticalAlign=middle;whiteSpace=wrap;rounded=0;" vertex="1" parent="1">
                    <mxGeometry x="200" y="210" width="40" height="30" as="geometry"/>
                </mxCell>
                <mxCell id="17" value="2" style="text;html=1;strokeColor=none;fillColor=none;align=center;verticalAlign=middle;whiteSpace=wrap;rounded=0;" vertex="1" parent="1">
                    <mxGeometry x="240" y="210" width="40" height="30" as="geometry"/>
                </mxCell>
                <mxCell id="18" value="3" style="text;html=1;strokeColor=none;fillColor=none;align=center;verticalAlign=middle;whiteSpace=wrap;rounded=0;" vertex="1" parent="1">
                    <mxGeometry x="280" y="210" width="40" height="30" as="geometry"/>
                </mxCell>
                <mxCell id="19" value="4&lt;span style=&quot;color: rgba(0, 0, 0, 0); font-family: monospace; font-size: 0px; text-align: start;&quot;&gt;%3CmxGraphModel%3E%3Croot%3E%3CmxCell%20id%3D%220%22%2F%3E%3CmxCell%20id%3D%221%22%20parent%3D%220%22%2F%3E%3CmxCell%20id%3D%222%22%20value%3D%222%22%20style%3D%22text%3Bhtml%3D1%3BstrokeColor%3Dnone%3BfillColor%3Dnone%3Balign%3Dcenter%3BverticalAlign%3Dmiddle%3BwhiteSpace%3Dwrap%3Brounded%3D0%3B%22%20vertex%3D%221%22%20parent%3D%221%22%3E%3CmxGeometry%20x%3D%22240%22%20y%3D%22210%22%20width%3D%2240%22%20height%3D%2230%22%20as%3D%22geometry%22%2F%3E%3C%2FmxCell%3E%3C%2Froot%3E%3C%2FmxGraphModel%3E&lt;/span&gt;" style="text;html=1;strokeColor=none;fillColor=none;align=center;verticalAlign=middle;whiteSpace=wrap;rounded=0;" vertex="1" parent="1">
                    <mxGeometry x="320" y="210" width="40" height="30" as="geometry"/>
                </mxCell>
                <mxCell id="20" value="5" style="text;html=1;strokeColor=none;fillColor=none;align=center;verticalAlign=middle;whiteSpace=wrap;rounded=0;" vertex="1" parent="1">
                    <mxGeometry x="360" y="210" width="40" height="30" as="geometry"/>
                </mxCell>
                <mxCell id="21" value="6" style="text;html=1;strokeColor=none;fillColor=none;align=center;verticalAlign=middle;whiteSpace=wrap;rounded=0;" vertex="1" parent="1">
                    <mxGeometry x="400" y="210" width="40" height="30" as="geometry"/>
                </mxCell>
                <mxCell id="22" value="7" style="text;html=1;strokeColor=none;fillColor=none;align=center;verticalAlign=middle;whiteSpace=wrap;rounded=0;" vertex="1" parent="1">
                    <mxGeometry x="440" y="210" width="40" height="30" as="geometry"/>
                </mxCell>
                <mxCell id="23" value="8" style="text;html=1;strokeColor=none;fillColor=none;align=center;verticalAlign=middle;whiteSpace=wrap;rounded=0;" vertex="1" parent="1">
                    <mxGeometry x="480" y="210" width="40" height="30" as="geometry"/>
                </mxCell>
            </root>
        </mxGraphModel>
    </diagram>
</mxfile>